<?xml version="1.0" encoding="iso-8859-1"?>
<svg version="1.1" id="Layer_1"
	xmlns="http://www.w3.org/2000/svg"
	xmlns:xlink="http://www.w3.org/1999/xlink" x="0px" y="0px"
	 viewBox="0 0 512 512" style="enable-background:new 0 0 512 512;" xml:space="preserve">
	<path style="fill:#2D527C;" d="M474.768,227.65c-5.29-5.544-14.073-5.75-19.617-0.461c-5.543,5.29-5.751,14.073-0.461,19.617
	c25.121,26.331,35.062,63.178,26.589,98.57c-8.47,35.392-34.02,63.746-68.34,75.848c-34.321,12.101-72.004,6.041-100.799-16.209
	c-28.798-22.249-44.169-57.183-41.119-93.447l18.51-220.126c0.361-4.284,3.541-5.855,4.891-6.331
	c1.349-0.476,4.809-1.249,7.778,1.865l102.236,107.156c5.288,5.543,14.07,5.752,19.617,0.461c5.543-5.29,5.751-14.073,0.461-19.617
	L322.278,67.821c-9.666-10.134-23.874-13.536-37.083-8.878c-13.208,4.656-22.141,16.218-23.316,30.175l-5.88,69.932l-5.88-69.932
	c-1.174-13.956-10.107-25.519-23.314-30.175c-13.21-4.658-27.419-1.254-37.085,8.877l-59.466,62.329
	c-5.29,5.544-5.084,14.327,0.462,19.617c5.546,5.29,14.327,5.081,19.616-0.461l59.467-62.331c2.966-3.108,6.429-2.341,7.778-1.862
	c1.351,0.476,4.531,2.046,4.891,6.331l10.794,128.367c-13.342,5.809-27.754,8.86-42.171,8.86c-12.054,0-24.08-2.087-35.749-6.203
	c-21.475-7.568-39.534-21.287-52.227-39.676c-0.2-0.29-0.423-0.567-0.648-0.845c-0.683-0.845-1.442-1.598-2.27-2.241
	c-0.028-0.022-0.058-0.039-0.086-0.061c-0.333-0.254-0.672-0.494-1.023-0.716c-0.178-0.112-0.362-0.205-0.542-0.309
	c-0.205-0.117-0.407-0.24-0.617-0.345c-0.268-0.136-0.542-0.25-0.817-0.366c-0.133-0.057-0.264-0.121-0.398-0.173
	c-0.305-0.118-0.617-0.216-0.928-0.312c-0.112-0.035-0.222-0.076-0.336-0.108c-0.309-0.087-0.622-0.153-0.935-0.218
	c-0.123-0.026-0.247-0.058-0.372-0.082c-0.291-0.053-0.585-0.085-0.88-0.118c-0.151-0.018-0.302-0.043-0.455-0.055
	c-0.264-0.021-0.527-0.024-0.791-0.029c-0.186-0.004-0.37-0.017-0.556-0.014c-0.239,0.004-0.476,0.025-0.715,0.042
	c-0.21,0.014-0.418,0.021-0.626,0.044c-0.234,0.026-0.466,0.071-0.698,0.11c-0.207,0.035-0.415,0.061-0.622,0.105
	c-0.271,0.057-0.536,0.135-0.802,0.208c-0.161,0.044-0.325,0.08-0.486,0.13c-0.366,0.115-0.726,0.253-1.084,0.4
	c-0.057,0.024-0.115,0.04-0.172,0.064c-1.586,0.674-3.063,1.662-4.354,2.948c-0.079,0.079-0.166,0.15-0.243,0.23
	c-0.004,0.003-0.008,0.007-0.012,0.011l-44.416,46.56C5.583,260.824-6.939,307.249,3.735,351.837
	c10.674,44.589,42.859,80.31,86.099,95.557c14.679,5.175,29.838,7.716,44.889,7.716c29.285-0.003,58.139-9.619,82.103-28.134
	c16.978-13.118,30.249-29.736,39.174-48.387c8.924,18.651,22.198,35.269,39.174,48.387c23.965,18.517,52.813,28.132,82.102,28.132
	c15.05,0,30.216-2.539,44.891-7.716c43.238-15.245,75.425-50.966,86.099-95.556C518.94,307.249,506.417,260.824,474.768,227.65z
	 M199.86,405.016c-28.796,22.252-66.478,28.306-100.8,16.208c-34.32-12.101-59.866-40.455-68.338-75.846
	c-5.564-23.241-3.186-47.112,6.216-68.219c13.971,36.112,42.915,64.703,80.641,78.006c1.526,0.538,3.083,0.794,4.615,0.794
	c5.719,0,11.075-3.564,13.085-9.265c2.549-7.226-1.243-15.149-8.47-17.698c-36.655-12.925-62.865-44.047-69.616-82.06
	c0.04-0.043,0.079-0.087,0.121-0.13l33.415-35.023c14.902,16.624,33.779,29.237,55.392,36.854
	c14.637,5.164,29.77,7.781,44.977,7.781c15.14,0,30.264-2.649,44.598-7.745l4.436,52.748
	c-15.156,16.039-35.002,27.201-56.474,31.624c-7.505,1.546-12.336,8.882-10.789,16.388c1.353,6.561,7.129,11.077,13.575,11.077
	c0.927,0,1.87-0.093,2.814-0.289c18.217-3.753,35.499-11.346,50.666-22.066C235.564,364.396,221.507,388.29,199.86,405.016z"/>
	<path style="fill:#CEE8FA;" d="M394.678,369.432c-24.001,8.463-42.197-2.679-48.906-7.863c-6.708-5.183-22.082-19.979-19.95-45.34
	l5.915-70.346c1.447-17.214,22.542-24.652,34.465-12.153l48.73,51.077c17.569,18.414,14.875,39.579,12.902,47.825
	C425.859,340.877,418.68,360.969,394.678,369.432z"/>
	<path style="fill:#2D527C;" d="M377.242,386.381c-19.187,0-33.268-8.666-39.953-13.833c-8.506-6.572-27.996-25.332-25.292-57.481
	l5.915-70.346c1.49-17.729,16.075-31.099,33.924-31.099c9.258,0,17.927,3.739,24.406,10.531l48.73,51.078
	c22.27,23.342,18.858,50.177,16.357,60.63c-2.506,10.457-11.614,35.928-42.037,46.655
	C392.02,385.081,384.601,386.381,377.242,386.381z M351.836,241.37c-2.331,0-5.924,1.511-6.273,5.676l-5.915,70.346
	c-1.561,18.569,9.695,29.403,14.607,33.199c3.13,2.418,11.632,8.042,22.986,8.042c4.208,0,8.523-0.769,12.823-2.284
	c17.569-6.195,22.83-20.909,24.277-26.948c1.443-6.034,3.414-21.533-9.448-35.015l-48.73-51.077
	C354.939,242.022,353.482,241.37,351.836,241.37z"/>
	<g></g>
	<g></g>
	<g></g>
	<g></g>
	<g></g>
	<g></g>
	<g></g>
	<g></g>
	<g></g>
	<g></g>
	<g></g>
	<g></g>
	<g></g>
	<g></g>
	<g></g>
</svg>
