<?xml version="1.0" encoding="iso-8859-1"?>
<svg version="1.1" id="Layer_1"
	xmlns="http://www.w3.org/2000/svg"
	xmlns:xlink="http://www.w3.org/1999/xlink" x="0px" y="0px"
	 viewBox="0 0 512.061 512.061" style="enable-background:new 0 0 512.061 512.061;" xml:space="preserve">
	<g transform="translate(0 -1)">
		<g>
			<g>
				<path d="M494.533,411.096c-11.281-11.281-26.283-17.502-42.231-17.502c-15.957,0-30.959,6.221-42.231,17.502
				c-11.29,11.273-17.502,26.274-17.502,42.232s6.212,30.959,17.502,42.231c11.273,11.281,26.274,17.502,42.231,17.502
				s30.959-6.221,42.231-17.502c11.281-11.273,17.502-26.274,17.502-42.231C512.035,437.379,505.814,422.377,494.533,411.096z
				 M476.434,461.861h-15.599v15.599c0,4.719-3.814,8.533-8.533,8.533s-8.533-3.814-8.533-8.533v-15.599h-15.599
				c-4.719,0-8.533-3.814-8.533-8.533s3.814-8.533,8.533-8.533h15.599v-15.599c0-4.719,3.814-8.533,8.533-8.533
				s8.533,3.814,8.533,8.533v15.599h15.599c4.719,0,8.533,3.814,8.533,8.533S481.153,461.861,476.434,461.861z"/>
				<path d="M437.129,378.017c-29.278-20.702-60.279-48.418-81.374-69.504l-51.456-51.465l48.887-48.887
				c31.172-31.164,61.124-53.658,94.242-70.758c16.717-0.887,32.58-7.791,44.612-19.823c14.592-14.575,21.743-34.748,19.618-55.33
				c-0.299-2.876-2.031-5.41-4.608-6.724c-2.586-1.314-5.649-1.229-8.149,0.213L456.765,80.05l-0.077-0.043
				c-11.119-5.487-17.783-17.033-16.99-29.406l41.131-23.842c2.56-1.485,4.173-4.181,4.267-7.142
				c0.077-2.953-1.374-5.751-3.849-7.381C450.441-8.005,409.43-0.206,387.875,30.053c-7.612,10.684-11.614,23.142-12.271,35.738
				c-17.092,33.041-39.552,62.959-70.69,94.106l-48.887,48.879l-45.961-45.961c-31.138-31.138-53.606-61.056-70.699-94.123
				c-0.87-16.734-7.765-32.614-19.806-44.646C104.312,8.797,87.066,1.057,68.302,1.057c-2.927,0-5.649,1.502-7.211,3.968
				c-1.562,2.475-1.758,5.581-0.495,8.218l21.632,45.679l-0.393,0.785c-4.958,10.027-15.479,17.178-26.061,18.116l-31.573-47.36
				c-1.587-2.381-4.25-3.806-7.1-3.806h-0.026c-2.867,0.009-5.53,1.451-7.108,3.849c-19.558,29.739-9.25,75.392,22.067,97.698
				c10.675,7.612,23.134,11.58,35.729,12.245c33.024,17.084,62.916,39.535,94.029,70.647l45.961,45.952l-47.65,47.659
				c-5.163,5.163-11.631,10.88-19.157,17.05l19.157,19.157c3.328,3.328,3.328,8.73,0,12.066c-1.672,1.664-3.849,2.5-6.033,2.5
				c-2.185,0-4.369-0.836-6.033-2.5l-20.582-20.582c-4.326,3.302-8.917,6.724-13.841,10.291l22.357,22.357
				c3.328,3.328,3.328,8.73,0,12.066c-1.673,1.664-3.857,2.5-6.033,2.5c-2.185,0-4.369-0.836-6.033-2.5L99.5,352.707
				c-10.197,7.1-21.385,14.652-33.715,22.724c-16.674,0.93-32.469,7.782-44.467,19.789C6.725,409.804-0.417,429.968,1.699,450.542
				c0.299,2.876,2.031,5.41,4.608,6.724c2.577,1.323,5.641,1.246,8.149-0.205l42.138-24.329
				c11.162,5.547,17.86,17.135,17.058,29.559l-41.122,23.74c-2.56,1.485-4.173,4.19-4.267,7.142
				c-0.077,2.961,1.382,5.751,3.849,7.39c11.546,7.586,24.525,11.23,37.376,11.23c21.427,0,42.513-10.146,55.996-29.047
				c7.586-10.65,11.58-23.057,12.262-35.61c30.02-45.841,53.137-76.681,70.622-94.157l47.65-47.659l51.465,51.465
				c7.236,7.236,15.258,15.667,23.509,24.764l18.731-18.731c3.337-3.336,8.738-3.336,12.066,0c3.337,3.337,3.337,8.73,0,12.066
				l-19.447,19.456c3.703,4.275,7.398,8.653,11.042,13.082l20.48-20.471c3.328-3.337,8.73-3.337,12.066,0
				c3.328,3.336,3.328,8.738,0,12.066l-21.828,21.82c4.523,5.811,8.789,11.631,12.877,17.391
				c2.927-14.763,10.138-28.331,21.026-39.211C408.85,388.163,422.392,380.953,437.129,378.017z M401.776,39.952
				c10.138-14.234,26.001-21.871,42.112-21.871c4.779,0,9.591,0.683,14.276,2.057l-30.95,17.86c-2.475,1.425-4.062,3.994-4.25,6.844
				l-0.299,4.659c-1.237,19.277,9.148,37.257,26.453,45.807l4.181,2.065c2.569,1.271,5.572,1.169,8.047-0.256L494.2,78.164
				c-1.784,10.257-6.673,19.806-14.225,27.349c-9.839,9.839-23.074,15.113-36.89,14.925h-0.026c-2.048-0.034-4.062-0.188-6.05-0.452
				c-0.256-0.034-0.503-0.077-0.759-0.111c-1.647-0.239-3.277-0.572-4.873-0.964c-0.58-0.145-1.143-0.299-1.715-0.461
				c-1.22-0.35-2.415-0.742-3.601-1.178c-0.819-0.307-1.638-0.623-2.449-0.973c-0.879-0.375-1.741-0.794-2.603-1.22
				c-0.964-0.478-1.929-0.973-2.867-1.519c-0.674-0.393-1.34-0.828-1.997-1.254c-0.998-0.64-1.997-1.289-2.944-1.997
				c-0.623-0.461-1.203-0.973-1.801-1.459c-0.913-0.742-1.826-1.485-2.688-2.287c-0.717-0.683-1.391-1.425-2.074-2.15
				c-0.674-0.7-1.365-1.374-1.997-2.116c-1.297-1.527-2.534-3.132-3.686-4.83c-1.391-2.065-2.594-4.241-3.644-6.477
				c-0.384-0.811-0.631-1.672-0.973-2.509c-0.58-1.442-1.178-2.884-1.621-4.378c-0.375-1.246-0.597-2.552-0.87-3.84
				c-0.239-1.101-0.521-2.185-0.691-3.294c-0.23-1.604-0.307-3.251-0.393-4.898C392.176,60.791,395.103,49.313,401.776,39.952z
				 M122.42,72.891c-0.026,2.057-0.179,4.079-0.435,6.076c-0.034,0.265-0.077,0.521-0.119,0.777
				c-0.239,1.647-0.555,3.26-0.947,4.855c-0.145,0.606-0.316,1.203-0.486,1.801c-0.333,1.195-0.725,2.364-1.152,3.524
				c-0.316,0.862-0.64,1.707-0.998,2.543c-0.367,0.853-0.768,1.69-1.178,2.526c-0.495,0.998-1.007,1.988-1.562,2.944
				c-0.384,0.657-0.802,1.297-1.212,1.929c-0.657,1.024-1.314,2.039-2.048,3.021c-0.444,0.589-0.93,1.152-1.399,1.732
				c-0.759,0.93-1.519,1.869-2.347,2.748c-0.657,0.7-1.382,1.357-2.082,2.022c-0.725,0.691-1.417,1.399-2.176,2.048
				c-1.536,1.306-3.132,2.543-4.838,3.695c-2.065,1.391-4.25,2.603-6.485,3.652c-0.802,0.367-1.647,0.623-2.466,0.947
				c-1.468,0.597-2.935,1.203-4.454,1.655c-1.195,0.35-2.449,0.563-3.678,0.828c-1.169,0.256-2.33,0.563-3.507,0.734
				c-1.502,0.205-3.046,0.273-4.582,0.358c-11.349,0.631-22.912-2.287-32.333-9.003c-19.49-13.892-28.672-40.277-23.322-61.466
				l25.523,38.289c1.476,2.219,3.9,3.61,6.545,3.78c18.731,1.169,37.82-10.155,46.455-27.622l2.227-4.489
				c1.152-2.347,1.178-5.086,0.051-7.441L82.825,20.317c8.661,2.714,16.819,7.945,24.67,15.795
				c9.805,9.805,15.078,22.989,14.933,36.727C122.429,72.857,122.42,72.874,122.42,72.891z M111.583,472.84
				c-13.15,18.458-35.908,25.822-56.388,19.823l30.95-17.869c2.475-1.425,4.062-4.002,4.25-6.844l0.29-4.54
				c1.246-19.337-9.173-37.385-26.556-45.995l-4.079-2.005c-2.56-1.246-5.572-1.161-8.038,0.265l-32.853,18.961
				c1.783-10.257,6.673-19.797,14.225-27.349c9.813-9.813,22.989-15.07,36.77-14.933c0.008,0,0.017,0.008,0.026,0.008
				c2.057,0.026,4.096,0.179,6.101,0.435c0.23,0.026,0.461,0.068,0.691,0.102c1.673,0.239,3.319,0.572,4.941,0.964
				c0.589,0.145,1.169,0.307,1.749,0.478c1.203,0.333,2.381,0.725,3.541,1.152c0.862,0.316,1.724,0.648,2.569,1.007
				c0.836,0.358,1.647,0.751,2.466,1.152c1.024,0.512,2.039,1.033,3.029,1.604c0.606,0.35,1.195,0.742,1.792,1.126
				c1.067,0.683,2.133,1.382,3.157,2.142c0.512,0.384,0.998,0.802,1.493,1.212c1.016,0.819,2.039,1.647,2.995,2.551
				c0.538,0.503,1.033,1.067,1.544,1.596c0.862,0.87,1.732,1.741,2.534,2.679c0.734,0.87,1.399,1.809,2.082,2.731
				c0.512,0.683,1.058,1.323,1.536,2.031c1.408,2.091,2.62,4.275,3.678,6.537c0.299,0.649,0.503,1.348,0.776,2.005
				c0.666,1.613,1.323,3.226,1.818,4.898c0.333,1.152,0.538,2.355,0.794,3.533c0.265,1.212,0.572,2.406,0.751,3.635
				c0.222,1.527,0.29,3.106,0.375,4.668C121.2,451.924,118.281,463.444,111.583,472.84z"/>
			</g>
		</g>
	</g>
	<g></g>
	<g></g>
	<g></g>
	<g></g>
	<g></g>
	<g></g>
	<g></g>
	<g></g>
	<g></g>
	<g></g>
	<g></g>
	<g></g>
	<g></g>
	<g></g>
	<g></g>
</svg>
