<?xml version="1.0" encoding="UTF-8" standalone="no" ?>
<!DOCTYPE svg PUBLIC "-//W3C//DTD SVG 1.1//EN" "http://www.w3.org/Graphics/SVG/1.1/DTD/svg11.dtd">
<svg xmlns="http://www.w3.org/2000/svg" xmlns:xlink="http://www.w3.org/1999/xlink" version="1.1" width="400" height="400" viewBox="0 0 400 400" xml:space="preserve">
<desc>Created with Fabric.js 3.6.2</desc>
<defs>
</defs>
<g transform="matrix(4 0 0 4 200 200)" id="Layer_1"  >
<path style="stroke: none; stroke-width: 1; stroke-dasharray: none; stroke-linecap: butt; stroke-dashoffset: 0; stroke-linejoin: miter; stroke-miterlimit: 4; fill: rgb(40,153,192); fill-rule: nonzero; opacity: 1;"  transform=" translate(-25, -25)" d="M 50 45.233 C 50 47.866 47.866 50 45.233 50 H 4.767 C 2.134 50 0 47.866 0 45.233 V 4.767 C 0 2.134 2.134 0 4.767 0 h 40.466 C 47.866 0 50 2.134 50 4.767 V 45.233 z" stroke-linecap="round" />
</g>
<g transform="matrix(4 0 0 4 227.13 227.04)" id="Layer_1"  >
<path style="stroke: none; stroke-width: 1; stroke-dasharray: none; stroke-linecap: butt; stroke-dashoffset: 0; stroke-linejoin: miter; stroke-miterlimit: 4; fill: rgb(0,0,0); fill-rule: nonzero; opacity: 0.2;"  transform=" translate(-31.78, -31.76)" d="M 36.338 13.518 l -4.124 2.313 l -7.023 4.417 l -11.628 7.353 L 35.98 50 h 9.253 C 47.866 50 50 47.866 50 45.233 V 27.18 L 36.338 13.518 z" stroke-linecap="round" />
</g>
<g transform="matrix(4 0 0 4 235.13 164.87)" id="Layer_1"  >
<circle style="stroke: none; stroke-width: 1; stroke-dasharray: none; stroke-linecap: butt; stroke-dashoffset: 0; stroke-linejoin: miter; stroke-miterlimit: 4; fill: rgb(255,255,255); fill-rule: nonzero; opacity: 1;"  cx="0" cy="0" r="3.718" />
</g>
<g transform="matrix(4 0 0 4 164.87 200)" id="Layer_1"  >
<circle style="stroke: none; stroke-width: 1; stroke-dasharray: none; stroke-linecap: butt; stroke-dashoffset: 0; stroke-linejoin: miter; stroke-miterlimit: 4; fill: rgb(255,255,255); fill-rule: nonzero; opacity: 1;"  cx="0" cy="0" r="3.718" />
</g>
<g transform="matrix(4 0 0 4 235.13 235.13)" id="Layer_1"  >
<circle style="stroke: none; stroke-width: 1; stroke-dasharray: none; stroke-linecap: butt; stroke-dashoffset: 0; stroke-linejoin: miter; stroke-miterlimit: 4; fill: rgb(255,255,255); fill-rule: nonzero; opacity: 1;"  cx="0" cy="0" r="3.718" />
</g>
<g transform="matrix(-1.78 3.58 -3.58 -1.78 200 217.57)" id="Layer_1"  >
<rect style="stroke: none; stroke-width: 1; stroke-dasharray: none; stroke-linecap: butt; stroke-dashoffset: 0; stroke-linejoin: miter; stroke-miterlimit: 4; fill: rgb(255,255,255); fill-rule: nonzero; opacity: 1;"  x="-1.4175" y="-9.819" rx="0" ry="0" width="2.835" height="19.638" />
</g>
<g transform="matrix(1.81 3.57 -3.57 1.81 200.07 182.38)" id="Layer_1"  >
<rect style="stroke: none; stroke-width: 1; stroke-dasharray: none; stroke-linecap: butt; stroke-dashoffset: 0; stroke-linejoin: miter; stroke-miterlimit: 4; fill: rgb(255,255,255); fill-rule: nonzero; opacity: 1;"  x="-1.4175" y="-9.84" rx="0" ry="0" width="2.835" height="19.68" />
</g>
</svg>