<?xml version="1.0" encoding="iso-8859-1"?>
<!-- Generator: Adobe Illustrator 19.0.0, SVG Export Plug-In . SVG Version: 6.00 Build 0)  -->
<svg version="1.1" id="Layer_1" xmlns="http://www.w3.org/2000/svg" xmlns:xlink="http://www.w3.org/1999/xlink" x="0px" y="0px"
	 viewBox="0 0 512 512" style="enable-background:new 0 0 512 512;" xml:space="preserve">
<circle style="fill:#273B7A;" cx="256" cy="256" r="256"/>
<path style="fill:#121149;" d="M256.284,511.997c140.779-0.153,254.933-113.942,255.698-254.578L401.958,147.394l-63.381,84.54
	l2.486,2.486l-28.077,24.612l-29.977-25.443l-49.131,49.131l24.329,24.329l-75.759,75.028l-45.203,13.533L256.284,511.997z"/>
<path style="fill:#E09112;" d="M394.355,135.93l-18.285-18.284c-7.651-7.652-17.825-11.867-28.646-11.867
	c-10.821,0-20.995,4.213-28.646,11.866l-60.338,60.34c-7.652,7.651-11.867,17.825-11.867,28.646s4.213,20.995,11.866,28.646
	l0.609,0.609l-23.159,23.159l-0.61-0.61c-15.798-15.794-41.494-15.794-57.292,0l-60.34,60.34c-15.794,15.796-15.794,41.498,0,57.294
	l18.284,18.284c7.651,7.651,17.825,11.864,28.646,11.864c10.821,0,20.995-4.213,28.646-11.864l60.338-60.34
	c7.652-7.651,11.867-17.825,11.867-28.646c0-10.821-4.213-20.995-11.866-28.644l-0.61-0.61l23.161-23.161l0.61,0.61
	c7.899,7.897,18.273,11.845,28.646,11.845c10.373,0,20.747-3.948,28.646-11.845l60.338-60.34
	c7.652-7.651,11.867-17.825,11.867-28.646S402.006,143.581,394.355,135.93z M236.496,293.79c3.093,3.093,4.796,7.206,4.796,11.579
	c0,4.374-1.703,8.487-4.798,11.579l-60.34,60.34c-6.384,6.387-16.774,6.387-23.159,0l-18.284-18.285
	c-6.387-6.385-6.387-16.774,0-23.161l60.34-60.34c3.193-3.194,7.385-4.789,11.579-4.789s8.387,1.596,11.579,4.787l0.61,0.61
	l-11.579,11.579c-4.713,4.713-4.713,12.354-0.002,17.065c2.357,2.357,5.444,3.536,8.533,3.536c3.088,0,6.177-1.179,8.532-3.534
	l11.581-11.581L236.496,293.79z M377.287,176.156l-60.34,60.34c-6.384,6.387-16.774,6.387-23.159,0l-0.61-0.61l11.579-11.579
	c4.713-4.713,4.713-12.354,0.002-17.065c-4.711-4.711-12.354-4.711-17.065-0.002l-11.581,11.581l-0.61-0.61
	c-3.093-3.093-4.796-7.206-4.796-11.579s1.703-8.487,4.798-11.579l60.34-60.342c3.093-3.093,7.206-4.796,11.579-4.796
	c4.374,0,8.487,1.703,11.579,4.798l18.285,18.284c3.093,3.093,4.796,7.206,4.796,11.579S380.382,173.063,377.287,176.156z"/>
<path style="fill:#FF5419;" d="M394.355,135.93l-9.718-9.716l-17.067,17.067l9.718,9.718c3.093,3.093,4.796,7.206,4.796,11.579
	s-1.703,8.487-4.798,11.579l-60.34,60.34c-6.384,6.387-16.774,6.387-23.159,0l-0.61-0.61l11.579-11.579
	c4.713-4.713,4.713-12.354,0.002-17.065c-0.195-0.195-0.4-0.369-0.605-0.546l-97.461,97.461c0.178,0.203,0.35,0.409,0.543,0.602
	c2.357,2.357,5.444,3.536,8.533,3.536c3.088,0,6.177-1.179,8.532-3.534l11.581-11.581l0.61,0.61
	c3.093,3.093,4.796,7.206,4.796,11.579c0,4.374-1.703,8.487-4.798,11.579l-60.34,60.34c-6.384,6.387-16.774,6.387-23.159,0
	l-9.716-9.716l-17.067,17.067l9.716,9.716c7.651,7.651,17.825,11.864,28.646,11.864s20.995-4.213,28.646-11.864l60.338-60.34
	c7.652-7.651,11.867-17.825,11.867-28.646c0-10.821-4.213-20.995-11.866-28.644l-0.61-0.61l23.161-23.161l0.61,0.61
	c7.899,7.897,18.273,11.845,28.646,11.845s20.747-3.948,28.646-11.845l60.338-60.34c7.652-7.651,11.867-17.825,11.867-28.646
	S402.006,143.581,394.355,135.93z"/>
<g>
</g>
<g>
</g>
<g>
</g>
<g>
</g>
<g>
</g>
<g>
</g>
<g>
</g>
<g>
</g>
<g>
</g>
<g>
</g>
<g>
</g>
<g>
</g>
<g>
</g>
<g>
</g>
<g>
</g>
</svg>
