<?xml version="1.0" encoding="UTF-8" standalone="no" ?>
<!DOCTYPE svg PUBLIC "-//W3C//DTD SVG 1.1//EN" "http://www.w3.org/Graphics/SVG/1.1/DTD/svg11.dtd">
<svg xmlns="http://www.w3.org/2000/svg" xmlns:xlink="http://www.w3.org/1999/xlink" version="1.1" width="400" height="400" viewBox="0 0 400 400" xml:space="preserve">
<desc>Created with Fabric.js 3.6.2</desc>
<defs>
</defs>
<g transform="matrix(0.39 0 0 0.39 200 200)" id="Layer_1"  >
<linearGradient id="SVGID_SVGID_1__2" gradientUnits="userSpaceOnUse" gradientTransform="matrix(1 0 0 1 -256 -256)"  x1="0.0000083" y1="256" x2="512" y2="256">
<stop offset="0%" style="stop-color:rgb(246,121,80);stop-opacity: 1"/>
<stop offset="100%" style="stop-color:rgb(241,90,41);stop-opacity: 1"/>
</linearGradient>
<circle style="stroke: none; stroke-width: 1; stroke-dasharray: none; stroke-linecap: butt; stroke-dashoffset: 0; stroke-linejoin: miter; stroke-miterlimit: 4; fill: url(#SVGID_SVGID_1__2); fill-rule: nonzero; opacity: 1;"  cx="0" cy="0" r="256" />
</g>
<g transform="matrix(0.39 0 0 0.39 200 200)" id="Layer_1"  >
<linearGradient id="SVGID_SVGID_2__3" gradientUnits="userSpaceOnUse" gradientTransform="matrix(1 0 0 1 0 0)"  x1="42.6666756" y1="256.0005188" x2="469.333313" y2="256.0005188">
<stop offset="0%" style="stop-color:rgb(241,90,41);stop-opacity: 1"/>
<stop offset="100%" style="stop-color:rgb(246,121,80);stop-opacity: 1"/>
</linearGradient>
<path style="stroke: none; stroke-width: 1; stroke-dasharray: none; stroke-linecap: butt; stroke-dashoffset: 0; stroke-linejoin: miter; stroke-miterlimit: 4; fill: url(#SVGID_SVGID_2__3); fill-rule: nonzero; opacity: 1;"  transform=" translate(-256, -256)" d="M 256 469.3338623 c -117.6309204 0 -213.3333282 -95.7023926 -213.3333282 -213.3333435 c 0 -117.6314545 95.7024078 -213.333313 213.3333282 -213.333313 c 117.636261 0 213.333313 95.7018661 213.333313 213.333313 C 469.333313 373.6314697 373.636261 469.3338623 256 469.3338623 z" stroke-linecap="round" />
</g>
<g transform="matrix(0.39 0 0 0.39 214.12 193.12)" id="Layer_1"  >
<path style="stroke: none; stroke-width: 1; stroke-dasharray: none; stroke-linecap: butt; stroke-dashoffset: 0; stroke-linejoin: miter; stroke-miterlimit: 4; fill: rgb(0,0,0); fill-rule: nonzero; opacity: 0.3;"  transform=" translate(-292.15, -238.38)" d="M 321.1642761 175.5477295 h -58.0378723 c -34.6480103 0 -62.8362732 28.1882629 -62.8362732 62.8362732 c 0 34.6495972 28.1882629 62.8378601 62.8362732 62.8378601 h 43.9141541 v -9.6000061 h -43.9141541 c -29.3557434 0 -53.2362671 -23.8826599 -53.2362671 -53.237854 c 0 -29.3557434 23.8805237 -53.2362671 53.2362671 -53.2362671 h 58.0378723 c 29.3551941 0 53.2357178 23.8805237 53.2357178 53.2362671 c 0 23.5776062 -15.1333313 44.0410767 -37.657074 50.9221191 l 2.8032227 9.1829529 C 366.1359863 290.3658752 384 266.2106628 384 238.3840027 C 384 203.7359924 355.8122559 175.5477295 321.1642761 175.5477295 z" stroke-linecap="round" />
</g>
<g transform="matrix(0.39 0 0 0.39 192.13 213.13)" id="Layer_1"  >
<path style="stroke: none; stroke-width: 1; stroke-dasharray: none; stroke-linecap: butt; stroke-dashoffset: 0; stroke-linejoin: miter; stroke-miterlimit: 4; fill: rgb(0,0,0); fill-rule: nonzero; opacity: 0.3;"  transform=" translate(-235.86, -289.62)" d="M 264.8746643 226.7797394 h -43.8773346 v 9.5999908 h 43.8773346 c 29.3552246 0 53.2357178 23.8805237 53.2357178 53.2362671 c 0 29.3551941 -23.8804932 53.2357483 -53.2357178 53.2357483 h -58.0362701 c -29.3551788 0 -53.2383881 -23.8805542 -53.2383881 -53.2357483 c 0 -23.5759888 15.1338654 -44.0415955 37.659729 -50.9226685 l -2.8079987 -9.1829224 c -26.5877228 8.1253204 -44.4517212 32.2805176 -44.4517212 60.1055908 c 0 34.6474609 28.188797 62.8357239 62.8383789 62.8357239 h 58.0362701 c 34.6474609 0 62.8357239 -28.1882629 62.8357239 -62.8357239 S 299.5221252 226.7797394 264.8746643 226.7797394 z" stroke-linecap="round" />
</g>
<g transform="matrix(0.39 0 0 0.39 210.99 189.99)" id="Layer_1"  >
<path style="stroke: none; stroke-width: 1; stroke-dasharray: none; stroke-linecap: butt; stroke-dashoffset: 0; stroke-linejoin: miter; stroke-miterlimit: 4; fill: rgb(255,255,255); fill-rule: nonzero; opacity: 1;"  transform=" translate(-284.15, -230.38)" d="M 313.1642761 167.5477295 h -58.0378876 c -34.647995 0 -62.8362579 28.1882629 -62.8362579 62.8362732 c 0 34.6495972 28.1882629 62.8378601 62.8362579 62.8378601 h 43.9141693 v -9.6000061 h -43.9141693 c -29.3557281 0 -53.2362518 -23.8826599 -53.2362518 -53.237854 c 0 -29.3557434 23.8805237 -53.2362671 53.2362518 -53.2362671 h 58.0378876 c 29.3551941 0 53.2357178 23.8805237 53.2357178 53.2362671 c 0 23.5775909 -15.1333313 44.0410767 -37.657074 50.9221191 l 2.8032227 9.1829529 C 358.1359863 282.3658752 376 258.2106628 376 230.3840027 C 376 195.7359924 347.8122559 167.5477295 313.1642761 167.5477295 z" stroke-linecap="round" />
</g>
<g transform="matrix(0.39 0 0 0.39 189.01 210.01)" id="Layer_1"  >
<path style="stroke: none; stroke-width: 1; stroke-dasharray: none; stroke-linecap: butt; stroke-dashoffset: 0; stroke-linejoin: miter; stroke-miterlimit: 4; fill: rgb(255,255,255); fill-rule: nonzero; opacity: 1;"  transform=" translate(-227.86, -281.62)" d="M 256.8746643 218.7797394 h -43.8773346 v 9.5999908 h 43.8773346 c 29.3552246 0 53.2357178 23.8805389 53.2357178 53.2362671 c 0 29.3551941 -23.8804932 53.2357483 -53.2357178 53.2357483 h -58.0362701 c -29.3551788 0 -53.2383881 -23.8805542 -53.2383881 -53.2357483 c 0 -23.5759888 15.1338654 -44.0415955 37.659729 -50.9226685 l -2.8079987 -9.1829224 c -26.5877228 8.1253204 -44.4517212 32.2805328 -44.4517212 60.1055908 c 0 34.6474609 28.188797 62.8357239 62.8383789 62.8357239 h 58.0362701 c 34.6474609 0 62.8357239 -28.1882629 62.8357239 -62.8357239 S 291.5221252 218.7797394 256.8746643 218.7797394 z" stroke-linecap="round" />
</g>
</svg>