<?xml version="1.0" encoding="utf-8"?>
<!-- Generator: Adobe Illustrator 21.0.0, SVG Export Plug-In . SVG Version: 6.00 Build 0)  -->
<svg version="1.1" id="Layer_1" xmlns="http://www.w3.org/2000/svg" xmlns:xlink="http://www.w3.org/1999/xlink" x="0px" y="0px"
	 viewBox="0 0 120 120" style="enable-background:new 0 0 120 120;" xml:space="preserve">
<style type="text/css">
	.st0{fill:url(#SVGID_1_);}
	.st1{fill:#2681FF;}
</style>
<g id="atlassian">
	
		<linearGradient id="SVGID_1_" gradientUnits="userSpaceOnUse" x1="51.7311" y1="161.4645" x2="20.6892" y2="107.6984" gradientTransform="matrix(1 0 0 -1 0 226.0003)">
		<stop  offset="0" style="stop-color:#0052CC"/>
		<stop  offset="0.923" style="stop-color:#2684FF"/>
	</linearGradient>
	<path class="st0" d="M35.5,55.4c-1.8-1.9-4.6-1.8-5.8,0.7L0.4,114.9c-0.9,1.7-0.2,3.8,1.6,4.7c0.5,0.3,1.1,0.4,1.6,0.4h40.9
		c1.3,0,2.6-0.7,3.2-2C56.4,99.7,51,71.9,35.5,55.4z"/>
	<path class="st1" d="M57.1,1.9c-16.5,26.1-15.3,55-4.5,76.6L72.4,118c0.6,1.2,1.8,2,3.2,2h40.9c2,0,3.5-1.6,3.5-3.5
		c0-0.5-0.1-1.1-0.4-1.6c0,0-55-110.3-56.4-113C61.8-0.6,58.7-0.7,57.1,1.9z"/>
</g>
</svg>
