<?xml version="1.0" encoding="UTF-8" standalone="no" ?>
<!DOCTYPE svg PUBLIC "-//W3C//DTD SVG 1.1//EN" "http://www.w3.org/Graphics/SVG/1.1/DTD/svg11.dtd">
<svg xmlns="http://www.w3.org/2000/svg" xmlns:xlink="http://www.w3.org/1999/xlink" version="1.1" width="400" height="400" viewBox="0 0 400 400" xml:space="preserve">
<desc>Created with Fabric.js 3.6.2</desc>
<defs>
</defs>
<g transform="matrix(0.45 0 0 0.45 200 200)" id="Layer_1"  >
<path style="stroke: none; stroke-width: 1; stroke-dasharray: none; stroke-linecap: butt; stroke-dashoffset: 0; stroke-linejoin: miter; stroke-miterlimit: 4; fill: rgb(255,255,255); fill-rule: nonzero; opacity: 1;"  transform=" translate(-256, -257)" d="M 256 33 C 132.3 33 32 133.3 32 257 c 0 123.7 100.3 224 224 224 c 123.7 0 224 -100.3 224 -224 C 480 133.3 379.7 33 256 33 z M 364.3 332.5 c 1.5 1.5 2.3 3.5 2.3 5.6 c 0 2.1 -0.8 4.2 -2.3 5.6 l -21.6 21.7 c -1.6 1.6 -3.6 2.3 -5.6 2.3 c -2 0 -4.1 -0.8 -5.6 -2.3 L 256 289.8 l -75.4 75.7 c -1.5 1.6 -3.6 2.3 -5.6 2.3 c -2 0 -4.1 -0.8 -5.6 -2.3 l -21.6 -21.7 c -1.5 -1.5 -2.3 -3.5 -2.3 -5.6 c 0 -2.1 0.8 -4.2 2.3 -5.6 l 75.7 -76 l -75.9 -75 c -3.1 -3.1 -3.1 -8.2 0 -11.3 l 21.6 -21.7 c 1.5 -1.5 3.5 -2.3 5.6 -2.3 c 2.1 0 4.1 0.8 5.6 2.3 l 75.7 74.7 l 75.7 -74.7 c 1.5 -1.5 3.5 -2.3 5.6 -2.3 c 2.1 0 4.1 0.8 5.6 2.3 l 21.6 21.7 c 3.1 3.1 3.1 8.2 0 11.3 l -75.9 75 L 364.3 332.5 z" stroke-linecap="round" />
</g>
</svg>