<?xml version="1.0" encoding="iso-8859-1"?>
<!-- Generator: Adobe Illustrator 18.0.0, SVG Export Plug-In . SVG Version: 6.00 Build 0)  -->
<!DOCTYPE svg PUBLIC "-//W3C//DTD SVG 1.1//EN" "http://www.w3.org/Graphics/SVG/1.1/DTD/svg11.dtd">
<svg version="1.1" id="Capa_1" xmlns="http://www.w3.org/2000/svg" xmlns:xlink="http://www.w3.org/1999/xlink" x="0px" y="0px"
	 viewBox="0 0 396.7 396.7" style="enable-background:new 0 0 396.7 396.7;" xml:space="preserve">
<g>
	<g>
		<path style="fill:#FDD44B;" d="M179.154,145.798c0.111,0.068,0.225,0.132,0.331,0.208
			C179.379,145.93,179.265,145.867,179.154,145.798z"/>
		<path style="fill:#FDD44B;" d="M178.12,145.281c0.129,0.05,0.255,0.104,0.38,0.162C178.375,145.385,178.25,145.331,178.12,145.281
			z"/>
		<path style="fill:#FDD44B;" d="M171.158,155.405c0.096,0.106,0.183,0.218,0.286,0.317
			C171.342,155.623,171.254,155.51,171.158,155.405z"/>
		<path style="fill:#FDD44B;" d="M177.016,144.96c0.122,0.023,0.238,0.059,0.357,0.089
			C177.254,145.019,177.138,144.983,177.016,144.96z"/>
		<path style="fill:#FDD44B;" d="M181.03,147.551c0.079,0.113,0.144,0.235,0.216,0.354
			C181.174,147.786,181.109,147.665,181.03,147.551z"/>
		<path style="fill:#FDD44B;" d="M181.582,148.523c0.065,0.14,0.123,0.283,0.178,0.428
			C181.705,148.806,181.647,148.664,181.582,148.523z"/>
		<path style="fill:#FDD44B;" d="M180.343,146.72c-0.048-0.049-0.105-0.087-0.154-0.134
			C180.238,146.633,180.295,146.671,180.343,146.72z"/>
		<path style="fill:#FDD44B;" d="M173.731,157.126c-0.162-0.058-0.326-0.11-0.481-0.18
			C173.405,157.017,173.569,157.069,173.731,157.126z"/>
		<path style="fill:#FDD44B;" d="M181.843,149.22c-0.543-0.153-1.112-0.242-1.702-0.242c-3.494,0-6.336,2.843-6.336,6.337
			c0,0.673,0.11,1.32,0.305,1.929c0.555,0.16,1.13,0.273,1.736,0.273c3.496,0,6.338-2.843,6.338-6.338
			C182.185,150.491,182.047,149.841,181.843,149.22z"/>
		<path style="fill:#FDD44B;" d="M172.607,156.597c-0.135-0.081-0.272-0.156-0.4-0.245
			C172.335,156.442,172.472,156.516,172.607,156.597z"/>
		<path style="fill:#FDD44B;" d="M170.129,153.866c-0.062-0.131-0.123-0.264-0.176-0.399
			C170.006,153.603,170.067,153.734,170.129,153.866z"/>
		<path style="fill:#FDD44B;" d="M169.722,152.725c-0.031-0.122-0.07-0.241-0.094-0.366
			C169.652,152.484,169.691,152.602,169.722,152.725z"/>
		<path style="fill:#FDD44B;" d="M170.71,154.861c-0.088-0.122-0.165-0.249-0.245-0.377
			C170.544,154.613,170.622,154.739,170.71,154.861z"/>
	</g>
	<g>
		<path style="fill:#CE593F;" d="M199.782,147.752c-0.015,0.094-0.022,0.189-0.037,0.283
			C199.76,147.941,199.767,147.846,199.782,147.752z"/>
		<path style="fill:#CE593F;" d="M199.74,154.275c0.018,0.127,0.03,0.255,0.051,0.381C199.77,154.53,199.758,154.401,199.74,154.275
			z"/>
		<path style="fill:#CE593F;" d="M201.69,160.573c0.046,0.093,0.096,0.183,0.143,0.275
			C201.786,160.756,201.736,160.666,201.69,160.573z"/>
		<path style="fill:#CE593F;" d="M201.786,141.636c-0.024,0.047-0.048,0.093-0.071,0.141
			C201.738,141.73,201.762,141.683,201.786,141.636z"/>
		<path style="fill:#CE593F;" d="M200.467,157.485c0.043,0.139,0.086,0.277,0.132,0.414
			C200.553,157.762,200.509,157.624,200.467,157.485z"/>
		<path style="fill:#CE593F;" d="M200.57,144.562c-0.03,0.09-0.056,0.182-0.085,0.273
			C200.514,144.744,200.541,144.652,200.57,144.562z"/>
		<path style="fill:#CE593F;" d="M196.886,154.946c-1.529,8.562-8.175,15.37-16.65,17.147c-0.275,0.986-0.537,1.975-0.802,2.965
			c0.264-0.989,0.527-1.979,0.802-2.965C188.713,170.316,195.358,163.508,196.886,154.946z"/>
		<path style="fill:#CE593F;" d="M216.498,171.574c-5.404-1.128-10.061-4.043-13.13-8.413c-3.063,4.364-7.713,7.146-13.109,8.276
			c-0.276,0.986-1.012,5.255-1.276,5.255h29.665C218.385,176.692,216.773,172.561,216.498,171.574z"/>
		<path style="fill:#CE593F;" d="M204.132,137.945c-1.812-3.953-3.53-7.365-5.082-10.274
			C200.55,130.524,202.584,134.647,204.132,137.945z"/>
		<path style="fill:#CE593F;" d="M198.362,126.38c-0.86,1.579-1.783,3.333-2.751,5.259
			C196.578,129.712,197.501,127.959,198.362,126.38L198.362,126.38z"/>
	</g>
	<g>
		<path style="fill:#CE593F;" d="M176.297,190.092c-0.127,0-0.25-0.013-0.375-0.019c0.125,0.006,0.248,0.019,0.374,0.019H176.297z"
			/>
		<path style="fill:#CE593F;" d="M170.666,238.997c1.942-0.34,3.911-0.631,5.892-0.897
			C174.577,238.366,172.608,238.657,170.666,238.997z"/>
		<path style="fill:#CE593F;" d="M220.837,189.871c-0.139,0.008-0.276-0.179-0.417-0.179h-34.478
			c-3.128,15-4.86,31.507-5.213,47.696c-0.758,0.081-1.504,0.286-2.257,0.378c6.247-0.758,12.667-1.117,19.24-1.117
			c9.831,0,19.331,0.774,28.361,2.441C225.815,222.325,224.072,205.842,220.837,189.871z"/>
	</g>
	<g>
		<path style="fill:#CE593F;" d="M173.605,373.363c-0.592-0.211-1.114-0.533-1.55-0.935
			C172.491,372.829,173.013,373.151,173.605,373.363c0.566,0.202,1.148,0.284,1.718,0.259
			C174.754,373.646,174.172,373.564,173.605,373.363z"/>
		<path style="fill:#CE593F;" d="M182.717,346.154c-1.214-0.493-2.419-1.063-3.591-1.81l0,0
			C180.298,345.091,181.503,345.661,182.717,346.154z"/>
		<path style="fill:#CE593F;" d="M225.873,367.535l-8.282-23.191l2.514,7.158c-3.862,2.745-22.688,7.485-34.272,2.274l-5.472,15.321
			c-0.032,0.04-0.049,0.093-0.08,0.134c1.708-2.25,4.571-3.418,7.445-2.847c3.504,0.702,6.03,3.773,6.041,7.345l0.012,3.407
			c0.009,2.508,2.053,4.556,4.56,4.556h0.016c1.218,0,2.361-0.496,3.218-1.36c0.859-0.864,1.329-2.018,1.324-3.236l0.018-3.456
			c0.018-3.581,2.558-6.654,6.074-7.341c3.514-0.69,7.026,1.2,8.392,4.509c0.928,2.248,3.445,3.368,5.73,2.554
			c1.147-0.41,2.067-1.242,2.588-2.343C226.22,369.92,226.282,368.682,225.873,367.535z"/>
	</g>
	<g>
		<path style="fill:#CE593F;" d="M62.724,141.207c-0.211-0.764-0.415-1.542-0.609-2.339
			C62.309,139.665,62.513,140.443,62.724,141.207z"/>
		<path style="fill:#CE593F;" d="M61.723,137.176c-0.181-0.821-0.349-1.665-0.511-2.521
			C61.374,135.511,61.542,136.354,61.723,137.176z"/>
		<path style="fill:#CE593F;" d="M66.917,152.421c-0.428-0.873-0.846-1.772-1.248-2.709
			C66.071,150.649,66.489,151.548,66.917,152.421z"/>
		<path style="fill:#CE593F;" d="M63.887,144.996c-0.246-0.728-0.488-1.464-0.717-2.227
			C63.398,143.531,63.64,144.267,63.887,144.996z"/>
		<path style="fill:#CE593F;" d="M65.22,148.594c-0.294-0.725-0.586-1.456-0.863-2.221C64.634,147.138,64.926,147.869,65.22,148.594
			z"/>
		<path style="fill:#CE593F;" d="M60.886,132.871c-0.152-0.906-0.286-1.844-0.415-2.788
			C60.601,131.026,60.734,131.964,60.886,132.871z"/>
		<path style="fill:#CE593F;" d="M59.757,123.372c-0.122-1.687-0.216-3.419-0.268-5.214
			C59.541,119.954,59.634,121.685,59.757,123.372z"/>
		<path style="fill:#CE593F;" d="M60.227,128.27c-0.126-1.059-0.225-2.161-0.322-3.268C60.001,126.11,60.101,127.211,60.227,128.27z
			"/>
		<path style="fill:#CE593F;" d="M79.099,168.146c-0.411-0.336-0.822-0.679-1.233-1.044
			C78.277,167.467,78.688,167.81,79.099,168.146z"/>
		<path style="fill:#CE593F;" d="M81.217,169.777c-0.522-0.373-1.047-0.765-1.574-1.181
			C80.171,169.012,80.695,169.404,81.217,169.777z"/>
		<path style="fill:#CE593F;" d="M76.088,165.426c0.376,0.374,0.752,0.731,1.129,1.079C76.84,166.157,76.464,165.8,76.088,165.426z"
			/>
		<path style="fill:#CE593F;" d="M114.536,139.511c-5.612-9.797-17.24-12.012-17.426-12.071
			c-10.765-3.389-17.125-14.906-18.94-34.25c-5.809,8.634-9.072,20.612-8.657,34.991c0.576,19.972,5.652,33.1,11.868,41.718
			c7.705,5.446,14.592,6.239,15.079,6.239c11.834,0,18.264-17.035,18.326-17.207C117.461,151.227,117.467,144.624,114.536,139.511z"
			/>
		<path style="fill:#CE593F;" d="M68.611,155.617c-0.522-0.906-1.033-1.848-1.525-2.835
			C67.578,153.77,68.089,154.711,68.611,155.617z"/>
		<path style="fill:#CE593F;" d="M75.397,164.717c-0.362-0.377-0.723-0.767-1.082-1.17
			C74.674,163.949,75.034,164.339,75.397,164.717z"/>
		<path style="fill:#CE593F;" d="M70.217,158.214c-0.387-0.586-0.764-1.205-1.138-1.829
			C69.453,157.009,69.83,157.627,70.217,158.214z"/>
		<path style="fill:#CE593F;" d="M73.622,162.752c-0.357-0.419-0.709-0.856-1.06-1.302
			C72.913,161.896,73.265,162.333,73.622,162.752z"/>
		<path style="fill:#CE593F;" d="M71.891,160.588c-0.358-0.478-0.711-0.981-1.062-1.488
			C71.181,159.608,71.533,160.11,71.891,160.588z"/>
	</g>
	<g>
		<path style="fill:#CE593F;" d="M119.764,108.588c-0.004-0.322,0.004-0.655-0.005-0.972
			C119.768,107.933,119.76,108.266,119.764,108.588z"/>
		<path style="fill:#CE593F;" d="M118.958,99.042c0.059,0.37,0.121,0.737,0.175,1.115C119.079,99.779,119.018,99.412,118.958,99.042
			z"/>
		<path style="fill:#CE593F;" d="M118.315,95.631c0.077,0.35,0.15,0.707,0.222,1.064C118.464,96.337,118.392,95.982,118.315,95.631z
			"/>
		<path style="fill:#CE593F;" d="M119.464,102.989c0.026,0.27,0.061,0.528,0.085,0.801
			C119.525,103.516,119.49,103.258,119.464,102.989z"/>
		<path style="fill:#CE593F;" d="M117.544,92.517c0.072,0.257,0.136,0.526,0.205,0.787C117.68,93.043,117.616,92.774,117.544,92.517
			z"/>
		<path style="fill:#CE593F;" d="M114.572,102.48c0.014-0.096,0.027-0.179,0.041-0.267c-1.168,5.765-2.499,10.838-3.588,14.578
			c2.486,1.281,5.186,2.932,7.794,5.038c0.394-2.558,0.622-4.981,0.774-7.336C119.157,108.846,117.414,106.056,114.572,102.48z"/>
		<path style="fill:#CE593F;" d="M119.682,113.146c0.024-0.498,0.051-0.999,0.065-1.487
			C119.733,112.147,119.706,112.649,119.682,113.146z"/>
		<path style="fill:#CE593F;" d="M116.645,89.602c-0.001-0.002-0.001-0.004-0.002-0.005c-0.009,0.074-0.02,0.145-0.029,0.219
			C116.626,89.74,116.635,89.678,116.645,89.602z"/>
	</g>
	<g>
		<path style="fill:#CE593F;" d="M124.512,179.241l0.001,0.001L124.512,179.241z"/>
		<path style="fill:#CE593F;" d="M159.259,197.624c-15.083-4.593-25.101-10.276-31.755-15.738c0.006,0.005,0.011,0.01,0.018,0.016
			c-3.027,3.013-6.693,5.708-11.055,7.404c11.371,7.221,25.412,14.118,41.409,17.95c-0.081,0.638-0.174,1.274-0.251,1.912
			C158.089,205.297,158.639,201.451,159.259,197.624z"/>
	</g>
	<g>
		<path style="fill:#FDD44B;" d="M225.364,146.719c-0.047-0.047-0.102-0.085-0.151-0.131
			C225.262,146.634,225.317,146.672,225.364,146.719z"/>
		<path style="fill:#FDD44B;" d="M222.038,144.96c0.122,0.023,0.238,0.059,0.357,0.089
			C222.276,145.019,222.16,144.983,222.038,144.96z"/>
		<path style="fill:#FDD44B;" d="M224.177,145.799c0.111,0.068,0.224,0.132,0.33,0.207
			C224.4,145.93,224.288,145.867,224.177,145.799z"/>
		<path style="fill:#FDD44B;" d="M223.143,145.281c0.129,0.05,0.255,0.104,0.379,0.162
			C223.397,145.385,223.271,145.331,223.143,145.281z"/>
		<path style="fill:#FDD44B;" d="M226.053,147.554c0.077,0.11,0.14,0.228,0.21,0.343
			C226.193,147.782,226.13,147.664,226.053,147.554z"/>
		<path style="fill:#FDD44B;" d="M226.607,148.529c0.063,0.136,0.119,0.275,0.173,0.417
			C226.726,148.803,226.67,148.665,226.607,148.529z"/>
		<path style="fill:#FDD44B;" d="M217.622,156.593c-0.127-0.077-0.259-0.146-0.38-0.231
			C217.363,156.448,217.495,156.516,217.622,156.593z"/>
		<path style="fill:#FDD44B;" d="M215.732,154.861c-0.088-0.122-0.166-0.249-0.244-0.377
			C215.566,154.613,215.644,154.739,215.732,154.861z"/>
		<path style="fill:#FDD44B;" d="M216.181,155.406c0.095,0.106,0.182,0.217,0.285,0.315
			C216.363,155.623,216.276,155.511,216.181,155.406z"/>
		<path style="fill:#FDD44B;" d="M226.865,149.22c-0.543-0.153-1.112-0.242-1.702-0.242c-3.494,0-6.337,2.843-6.337,6.337
			c0,0.673,0.11,1.32,0.304,1.929c0.556,0.16,1.131,0.273,1.737,0.273c3.497,0,6.339-2.843,6.339-6.338
			C227.207,150.491,227.069,149.841,226.865,149.22z"/>
		<path style="fill:#FDD44B;" d="M218.75,157.126c-0.161-0.057-0.323-0.109-0.478-0.179
			C218.427,157.016,218.589,157.068,218.75,157.126z"/>
		<path style="fill:#FDD44B;" d="M215.15,153.865c-0.062-0.13-0.122-0.261-0.175-0.397
			C215.028,153.604,215.088,153.734,215.15,153.865z"/>
		<path style="fill:#FDD44B;" d="M214.744,152.724c-0.031-0.122-0.07-0.24-0.094-0.365
			C214.674,152.484,214.713,152.602,214.744,152.724z"/>
	</g>
	<g>
		<path style="fill:#CE593F;" d="M278.074,97.118c0.128-0.661,0.261-1.314,0.406-1.949
			C278.335,95.805,278.201,96.456,278.074,97.118z"/>
		<path style="fill:#CE593F;" d="M280.314,91.445c-0.083-0.644-0.176-1.279-0.25-1.929c-0.5,1.458-0.939,3.035-1.343,4.669
			c0.399-1.61,0.841-3.149,1.333-4.588C280.145,90.256,280.231,90.867,280.314,91.445z"/>
		<path style="fill:#CE593F;" d="M276.939,107.543c-0.009,0.34-0.002,0.697-0.006,1.042
			C276.939,108.24,276.93,107.882,276.939,107.543z"/>
		<path style="fill:#CE593F;" d="M277.14,103.883c0.047-0.571,0.116-1.117,0.177-1.673
			C277.257,102.767,277.187,103.31,277.14,103.883z"/>
		<path style="fill:#CE593F;" d="M282.031,101.868c0.03,0.186,0.061,0.384,0.094,0.612c-2.835,3.567-4.576,6.355-5.018,11.977
			c0.155,2.367,0.386,4.803,0.784,7.377c2.61-2.107,5.311-3.762,7.797-5.043C284.58,112.975,283.215,107.778,282.031,101.868z"/>
		<path style="fill:#CE593F;" d="M277.006,112.92c-0.018-0.403-0.041-0.811-0.052-1.208
			C276.965,112.11,276.987,112.516,277.006,112.92z"/>
		<path style="fill:#CE593F;" d="M277.531,100.377c0.089-0.644,0.191-1.271,0.297-1.894
			C277.722,99.107,277.62,99.731,277.531,100.377z"/>
	</g>
	<g>
		<path style="fill:#CE593F;" d="M316.804,171.868c6.217-8.618,13.293-21.011,10.365-43.549c-1.85-14.24-2.839-26.381-8.627-35.01
			c-1.821,19.314-8.181,30.78-18.935,34.167c-0.186,0.058-12.554,3.124-17.467,12.128c-2.809,5.146-2.87,11.946-0.184,19.681
			c0.031,0.081,6.409,17.408,18.302,17.408c0.002,0,0.002,0,0.002,0C309.638,176.692,319.876,169.697,316.804,171.868z"/>
		<path style="fill:#CE593F;" d="M323.811,77.45c-1.516-1.524-3.134-2.897-4.878-4.066c0,0.009,0,0.018,0.001,0.026
			C320.664,74.573,322.285,75.936,323.811,77.45z"/>
	</g>
	<g>
		<path style="fill:#CE593F;" d="M274.726,176.679c-0.007-0.009-0.014-0.018-0.021-0.027c-0.366,0.409-0.753,0.823-1.155,1.239
			C273.94,177.487,274.37,177.076,274.726,176.679z"/>
		<path style="fill:#CE593F;" d="M253.702,206.012c14.037-3.977,26.4-10.208,36.607-16.692c-0.004-0.002-0.009-0.004-0.013-0.006
			C280.077,195.801,267.71,202.035,253.702,206.012z"/>
		<path style="fill:#CE593F;" d="M238.878,207.255c15.996-3.832,30.037-10.729,41.409-17.95c-4.362-1.695-8.028-4.391-11.056-7.404
			c0.415-0.341,0.756-0.674,1.145-1.013c-6.627,5.76-16.909,11.858-32.906,16.731c0.619,3.828,1.169,7.675,1.631,11.547
			c0.009-0.001,0.018-0.004,0.027-0.005C239.05,208.525,238.958,207.891,238.878,207.255z"/>
		<path style="fill:#CE593F;" d="M273.432,178.012c-0.735,0.755-1.539,1.523-2.4,2.296
			C271.896,179.533,272.696,178.769,273.432,178.012z"/>
	</g>
	<g>
		<path style="fill:#CE593F;" d="M211.852,252.422c1.527,0.149,3.025,0.354,4.527,0.55
			C214.875,252.777,213.379,252.571,211.852,252.422z"/>
		<path style="fill:#CE593F;" d="M218.697,253.261c1.541,0.227,3.043,0.508,4.548,0.784
			C221.74,253.77,220.239,253.489,218.697,253.261z"/>
		<path style="fill:#CE593F;" d="M177.215,271.01c-0.244,0.031-0.488,0.065-0.731,0.097c-1.513,0.203-3.02,0.42-4.51,0.666
			c1.857-0.307,3.738-0.569,5.63-0.808C177.475,270.982,177.344,270.994,177.215,271.01z"/>
		<path style="fill:#CE593F;" d="M204.846,251.908c1.218,0.06,2.418,0.174,3.627,0.263
			C207.264,252.082,206.064,251.968,204.846,251.908z"/>
		<path style="fill:#CE593F;" d="M225.1,254.375c-7.858-0.525-26.136-0.044-43.883,4.221c0.196,5.377,0.169,6.441,0.665,11.883
			c0,0,0,0-0.001,0c-0.738,0.073-1.466,0.168-2.199,0.251c5.879-0.661,11.903-1.016,18.047-1.016c9.314,0,18.362,0.763,27.005,2.273
			c0.566-5.862,0.944-11.684,1.163-17.471C225.636,254.463,225.362,254.427,225.1,254.375z"/>
	</g>
	<g>
		<path style="fill:#CE593F;" d="M210.212,285.277c1.244,0.106,2.468,0.252,3.697,0.39
			C212.681,285.529,211.457,285.382,210.212,285.277z"/>
		<path style="fill:#CE593F;" d="M204.047,284.883c1.008,0.043,1.998,0.125,2.997,0.188
			C206.044,285.008,205.055,284.925,204.047,284.883z"/>
		<path style="fill:#CE593F;" d="M216.24,285.923c1.278,0.165,2.535,0.368,3.794,0.567
			C218.774,286.291,217.518,286.088,216.24,285.923z"/>
		<path style="fill:#CE593F;" d="M222.912,286.941c-0.234-0.043-0.476-0.07-0.711-0.112
			C222.524,286.892,222.789,286.937,222.912,286.941z"/>
		<path style="fill:#CE593F;" d="M184.488,289.972c0.831,5.543,1.176,7.719,2.006,13.719c-0.009,0-0.019,0-0.029,0
			c-0.072,0-0.142-0.273-0.213-0.267c3.784-0.266,7.611-0.553,11.474-0.553c7.605,0,15.077,0.443,22.304,1.463
			c0.905-4.665,1.799-10.011,2.702-16.04c0.067-0.44,0.117-0.752,0.18-1.192C204.551,285.725,184.412,289.459,184.488,289.972z"/>
		<path style="fill:#CE593F;" d="M173.985,288.556c-0.077-0.513-0.137-1.172-0.211-1.685c0.073,0.513,0.134,1.246,0.21,1.759
			c0.893,5.956,1.777,10.061,2.67,16.061h0.001C175.763,298.692,174.878,294.512,173.985,288.556z"/>
		<path style="fill:#CE593F;" d="M181.463,303.541c-0.658,0.067-1.307,0.153-1.961,0.227c0.659-0.075,1.313-0.161,1.976-0.228
			C181.472,303.541,181.467,303.541,181.463,303.541z"/>
	</g>
	<g>
		<path style="fill:#CE593F;" d="M183.663,327.517c-0.075-0.132-0.15-0.262-0.225-0.399
			C183.513,327.255,183.588,327.385,183.663,327.517z"/>
		<path style="fill:#CE593F;" d="M201.025,333.692c-0.385,0-0.786-0.194-1.203-0.189c1.323-0.015,2.475,0.051,3.504-0.017
			c-0.689,0.046-1.432,0.206-2.244,0.206C201.063,333.692,201.043,333.692,201.025,333.692z"/>
		<path style="fill:#CE593F;" d="M182.425,325.058c-0.053-0.119-0.106-0.251-0.158-0.373
			C182.319,324.807,182.372,324.939,182.425,325.058z"/>
		<path style="fill:#CE593F;" d="M181.434,322.594c-0.098-0.263-0.196-0.52-0.294-0.794
			C181.237,322.074,181.335,322.331,181.434,322.594z"/>
		<path style="fill:#CE593F;" d="M206.936,318.053c-1.489-0.093-2.985-0.167-4.491-0.215
			C203.951,317.886,205.447,317.959,206.936,318.053z"/>
		<path style="fill:#CE593F;" d="M191.235,321.237c1.447,4.753,1.895,5.732,3.519,7.982c1.881,2.603,3.772,3.619,8.612,3.946
			c4.846-0.327,6.738-1.343,8.619-3.946c1.609-2.225,3.103-5.58,4.534-10.251C212.251,319.11,197.954,319.771,191.235,321.237z"/>
		<path style="fill:#CE593F;" d="M216.215,318.934c0.122,0.019,0.229,0.031,0.303,0.034c-3.096-0.404-6.244-0.706-9.432-0.908
			C210.17,318.257,213.215,318.549,216.215,318.934z"/>
	</g>
	<path style="fill:#3F2D20;" d="M312.199,54.343c-2.396-0.562-4.917,0.086-6.748,1.736c-1.828,1.648-2.735,4.09-2.423,6.533
		c2.018,15.874,1.439,37.77-3.808,46.686c-2.96-10.998-6.84-29.683-3.79-43.619c0.672-3.07-0.638-6.234-3.281-7.932
		c-2.645-1.697-6.065-1.574-8.578,0.315c-1.384,1.039-33.228,25.746-17.278,80.694c-2.02,6.844-1.797,14.45,0.679,22.737
		c-1.58,3.492-8.071,13.552-32.33,21.265c-0.959-4.377-2.016-8.726-3.189-13.04c6.434-3.688,10.786-10.61,10.786-18.541
		c0-11.088-8.488-20.225-19.308-21.267c4.947-5.303,11.43-13.498,17.178-24.792c9.933-19.51,19.603-52.563,9.277-99.227
		c-0.897-4.053-4.908-6.608-8.964-5.715c-4.054,0.898-6.613,4.911-5.716,8.965c7.441,33.618,4.876,63.367-7.621,88.418
		c-5.133,10.288-10.984,17.631-15.222,22.166c-4.214-7.801-7.217-12-7.411-12.269c-0.008-0.009-0.016-0.017-0.021-0.026
		c-1.596-2.262-6.742-7.445-12.17,0.026c-0.194,0.268-3.197,4.474-7.406,12.265c-4.24-4.534-10.088-11.864-15.226-22.163
		c-12.498-25.051-15.063-54.8-7.623-88.418c0.898-4.054-1.661-8.067-5.714-8.965c-4.054-0.894-8.067,1.662-8.964,5.715
		c-10.328,46.664-0.656,79.717,9.275,99.227c5.752,11.296,12.233,19.491,17.178,24.792c-10.82,1.042-19.308,10.178-19.308,21.267
		c0,7.936,4.358,14.861,10.796,18.547c-1.174,4.313-2.23,8.66-3.187,13.036c-24.282-7.718-30.764-17.782-32.339-21.27
		c2.472-8.26,2.695-15.866,0.673-22.719c15.96-54.958-15.89-79.672-17.274-80.71c-2.513-1.889-5.934-2.012-8.577-0.315
		c-2.644,1.698-3.954,4.862-3.281,7.932c3.049,13.933-0.831,32.613-3.791,43.617c-5.246-8.918-5.824-30.81-3.805-46.68
		c0.312-2.444-0.592-4.887-2.421-6.537c-1.83-1.649-4.352-2.298-6.752-1.736c-25.085,5.881-40.65,29.742-40.062,63.814
		c0.646,37.363,20.306,56.709,24.577,60.678c11.241,11.132,39.167,35.202,77.669,43.608l-27.109-1.471
		c-1.372-0.07-2.734,0.228-3.944,0.873l-28.825,15.373c-0.736,0.393-1.402,0.905-1.969,1.517l-12.856,13.837
		c-2.826,3.041-2.65,7.798,0.391,10.623c1.448,1.346,3.284,2.01,5.115,2.01c2.016,0,4.028-0.807,5.508-2.401l11.997-12.913
		l25.864-13.793l34.759,1.886c-0.057,3.046-0.063,6.105-0.025,9.173l-30.476-1.341c-1.424-0.067-2.842,0.283-4.081,0.995
		l-22.984,13.234c-0.951,0.548-1.771,1.299-2.402,2.198l-10.134,14.445c-2.384,3.399-1.562,8.087,1.836,10.471
		c1.313,0.922,2.819,1.364,4.311,1.364c2.367-0.001,4.697-1.116,6.16-3.2l9.176-13.081l19.643-11.31l29.499,1.298
		c0.147,2.423,0.321,4.851,0.527,7.285l-21.482-0.706c-1.468-0.054-2.926,0.337-4.179,1.107l-16.017,9.833
		c-1.035,0.636-1.903,1.514-2.524,2.558l-7.607,12.766c-2.125,3.566-0.956,8.18,2.609,10.306c1.207,0.718,2.532,1.06,3.841,1.06
		c2.562,0,5.058-1.31,6.465-3.671l6.66-11.176l12.515-7.684l21.347,0.701c0.258,1.956,0.515,3.91,0.808,5.872
		c0.236,1.579,0.472,3.094,0.707,4.582l-10.343,1.75c-1.706,0.289-3.26,1.157-4.399,2.458l-10.944,12.491
		c-0.501,0.572-0.913,1.217-1.221,1.913l-4.839,10.938c-1.68,3.797,0.037,8.236,3.833,9.915c0.989,0.437,2.021,0.645,3.038,0.645
		c2.883,0,5.636-1.67,6.878-4.478l4.374-9.889l8.426-9.617l7.843-1.327c1.775,8.653,3.636,15.198,5.768,20.269l-11.552,32.345
		c-3.633,10.173,1.689,21.407,11.863,25.041c4.427,1.579,9.064,1.469,13.192-0.014c3.473,5.52,9.618,9.193,16.6,9.193h0.07
		c6.967-0.025,13.083-3.703,16.538-9.19c4.127,1.487,8.774,1.597,13.22,0.011c4.929-1.761,8.877-5.335,11.119-10.065
		c2.239-4.73,2.504-10.049,0.744-14.978l-11.55-32.344c2.132-5.071,3.991-11.616,5.767-20.269l7.842,1.327l8.426,9.617l4.375,9.889
		c1.241,2.808,3.993,4.478,6.877,4.478c1.016,0,2.05-0.207,3.038-0.645c3.796-1.68,5.513-6.118,3.833-9.915l-4.839-10.938
		c-0.307-0.696-0.718-1.34-1.22-1.913l-10.943-12.491c-1.141-1.301-2.694-2.169-4.4-2.458l-10.344-1.75
		c0.237-1.488,0.472-3.003,0.709-4.582c0.294-1.961,0.564-3.918,0.82-5.872l21.334-0.701l12.515,7.684l6.66,11.176
		c1.408,2.361,3.904,3.671,6.466,3.671c1.307,0,2.633-0.342,3.841-1.06c3.565-2.126,4.733-6.74,2.609-10.306l-7.607-12.766
		c-0.622-1.044-1.49-1.922-2.525-2.558l-16.017-9.833c-1.255-0.77-2.715-1.162-4.18-1.107l-21.459,0.705
		c0.204-2.435,0.372-4.862,0.519-7.285l29.485-1.297l19.643,11.31l9.177,13.081c1.462,2.085,3.792,3.2,6.161,3.2
		c1.49,0,2.997-0.443,4.311-1.364c3.398-2.384,4.22-7.073,1.836-10.471l-10.136-14.445c-0.631-0.9-1.451-1.649-2.402-2.197
		l-22.982-13.234c-1.239-0.715-2.654-1.067-4.081-0.997l-30.464,1.34c0.037-3.068,0.027-6.126-0.029-9.173l34.749-1.885
		l25.863,13.793l11.998,12.914c1.482,1.593,3.492,2.4,5.508,2.4c1.832,0,3.669-0.666,5.115-2.01
		c3.042-2.826,3.216-7.582,0.391-10.624l-12.857-13.837c-0.567-0.611-1.233-1.123-1.969-1.516l-28.826-15.373
		c-1.21-0.646-2.578-0.944-3.944-0.873l-27.108,1.471c72.336-24.094,87.398-54.856,89.336-57.991
		c8.326-13.481,12.91-29.923,12.91-46.295C352.261,84.08,337.285,60.224,312.199,54.343z M116.644,89.597
		c2.74,8.028,4.259,18.69,2.176,32.233c-2.607-2.106-5.308-3.759-7.794-5.039C112.859,110.492,115.392,100.465,116.644,89.597z
		 M59.489,118.158c-0.607-21.065,6.669-36.987,18.294-44.774c-0.195,4.604-0.252,10.062,0.073,15.674
		c1.267,21.844,7.744,34.758,19.255,38.381c0.186,0.059,11.814,2.274,17.426,12.071c2.931,5.113,2.925,11.716,0.25,19.419
		c-0.062,0.172-6.491,17.207-18.326,17.207C95.35,176.137,61.042,172.043,59.489,118.158z M157.625,209.168
		c-20.085-2.995-37.547-11.203-51.181-19.862c6.808-2.646,11.929-7.726,15.557-12.653c6.149,6.867,17.25,14.879,37.259,20.972
		C158.639,201.451,158.089,205.298,157.625,209.168z M197.219,151.179c0-5.003-1.74-9.598-4.63-13.243
		c2.081-4.541,4.052-8.399,5.773-11.556c1.719,3.155,3.69,7.027,5.771,11.565c-2.895,3.639-4.636,8.231-4.636,13.234
		c0,10.287,7.306,18.896,17.002,20.92c0.274,0.987,0.566,1.968,0.83,2.959h-37.894c0.264-0.989,0.527-1.979,0.802-2.965
		C189.922,170.063,197.219,161.459,197.219,151.179z M203.367,333.166c-0.009,0-0.019,0.001-0.027,0.002
		c-0.691,0.046-1.439,0.079-2.258,0.1c-0.019,0.001-0.038,0.001-0.057,0.001c-0.396,0.01-0.801,0.019-1.228,0.024
		c-0.457,0.005-0.928,0.008-1.425,0.008c-0.005,0-0.009,0-0.014,0l0,0c-8.78,0-11.2-0.724-13.625-4.081
		c-1.016-1.406-1.987-3.262-2.925-5.617c-0.563-1.413-1.114-3.006-1.657-4.788c5.716-0.693,11.597-1.051,17.575-1.051
		c6.303,0,12.489,0.402,18.489,1.172c0.101,0.013,0.203,0.022,0.303,0.034c-1.431,4.671-2.925,8.026-4.534,10.251
		C210.103,331.822,208.212,332.839,203.367,333.166z M197.725,302.728c-3.79,0-7.547,0.137-11.261,0.392
		c-1.65,0.114-3.292,0.249-4.922,0.412c-0.027,0.002-0.053,0.006-0.08,0.009c-1.612,0.163-3.217,0.344-4.807,0.555h-0.001
		c-0.893-4.625-1.777-9.882-2.67-15.838c-0.076-0.513-0.137-1.023-0.21-1.536c7.655-1.308,15.681-1.975,23.955-1.975
		c8.342,0,16.413,0.687,24.11,2.012c0.356,0.061,0.717,0.116,1.072,0.181c-0.063,0.44-0.114,0.877-0.18,1.318
		c-0.902,6.029-1.797,11.339-2.701,16.004C212.803,303.243,205.331,302.728,197.725,302.728z M197.729,269.714
		c-5.378,0-10.669,0.259-15.848,0.765c-1.566,0.154-3.121,0.333-4.666,0.531c-0.244,0.032-0.487,0.065-0.731,0.097
		c-1.513,0.203-3.02,0.42-4.51,0.667c-0.564-5.88-0.942-11.719-1.153-17.523c8.516-1.663,17.528-2.518,26.891-2.518
		c9.447,0,18.805,0.922,27.466,2.647c0.239,0.047,0.482,0.088,0.719,0.137c-0.219,5.787-0.597,11.609-1.163,17.471
		C216.091,270.477,207.044,269.714,197.729,269.714z M197.712,236.698c-9.342,0-18.395,0.784-27.045,2.299
		c0.28-16.687,2.035-33.02,5.256-48.924c0.125,0.006,0.248,0.019,0.375,0.019h44.123c0.141,0,0.278-0.013,0.417-0.021
		c3.236,15.971,4.978,32.379,5.237,49.143C217.043,237.547,207.543,236.698,197.712,236.698z M175.846,144.841
		c3.496,0,6.338,2.843,6.338,6.338c0,3.494-2.842,6.338-6.338,6.338c-3.494,0-6.337-2.843-6.337-6.338
		C169.509,147.685,172.352,144.841,175.846,144.841z M225.699,371.02c-0.521,1.1-1.441,1.932-2.588,2.342
		c-2.285,0.813-4.802-0.306-5.73-2.555c-1.366-3.309-4.878-5.2-8.392-4.51c-3.516,0.687-6.057,3.759-6.074,7.34l-0.018,3.452
		c0.006,1.218-0.464,2.365-1.323,3.229c-0.857,0.864-2.001,1.342-3.218,1.347h-0.016c-2.507,0-4.551-2.035-4.561-4.543l-0.012-3.394
		c-0.012-3.573-2.537-6.643-6.041-7.345c-3.502-0.696-7.016,1.161-8.404,4.454c-0.937,2.226-3.451,3.331-5.718,2.524
		c-2.368-0.846-3.606-3.461-2.761-5.828l8.282-23.19c6.254,3.985,13.273,3.99,19.232,3.99c5.959,0,12.979-0.005,19.233-3.99
		l8.282,23.19C226.282,368.682,226.22,369.919,225.699,371.02z M220.868,157.517c-3.494,0-6.337-2.843-6.337-6.338
		c0-3.494,2.842-6.338,6.337-6.338c3.496,0,6.339,2.843,6.339,6.338C227.207,154.673,224.364,157.517,220.868,157.517z
		 M280.063,89.515c1.247,10.901,3.79,20.961,5.626,27.276c-2.486,1.281-5.188,2.936-7.797,5.043
		C275.786,108.229,277.313,97.545,280.063,89.515z M239.101,209.167c-0.462-3.871-1.012-7.719-1.631-11.547
		c20.001-6.092,31.085-14.102,37.235-20.968c3.629,4.935,8.77,10.023,15.604,12.667
		C276.694,197.969,259.242,206.168,239.101,209.167z M300.258,176.137c0,0,0,0-0.002,0c-11.892-0.001-18.27-17.058-18.301-17.14
		c-2.686-7.734-2.625-14.266,0.184-19.412c4.914-9.003,17.282-12.087,17.467-12.145c11.511-3.625,17.99-16.538,19.255-38.382
		c0.325-5.612,0.268-11.069,0.072-15.674c11.624,7.786,18.294,23.699,18.294,44.774
		C337.227,147.799,320.975,175.433,300.258,176.137z"/>
</g>
<g>
</g>
<g>
</g>
<g>
</g>
<g>
</g>
<g>
</g>
<g>
</g>
<g>
</g>
<g>
</g>
<g>
</g>
<g>
</g>
<g>
</g>
<g>
</g>
<g>
</g>
<g>
</g>
<g>
</g>
</svg>
