<svg
	xmlns="http://www.w3.org/2000/svg" x="0px" y="0px" viewBox="0 0 400 400" enable-background="new 0 0 2500 2500" xml:space="preserve">
	<g>
		<path id="path0" d="M2.324 4.700 C 2.256 4.865,2.290 28.445,2.400 57.101 L 2.600 109.202 47.396 154.001 C 72.033 178.640,92.302 198.800,92.437 198.800 C 92.572 198.800,111.141 180.215,133.701 157.500 C 156.262 134.785,192.026 98.920,213.178 77.800 C 234.330 56.680,254.912 36.107,258.918 32.083 C 262.923 28.059,266.669 24.420,267.242 23.997 L 268.285 23.228 332.430 87.414 C 367.710 122.716,396.742 151.600,396.945 151.600 C 398.086 151.600,395.577 129.634,392.993 117.000 C 390.407 104.353,386.309 89.126,385.140 87.820 C 384.953 87.611,384.800 87.114,384.800 86.715 C 384.800 86.316,384.635 85.677,384.434 85.295 C 383.935 84.350,383.216 82.582,381.220 77.400 C 380.288 74.980,379.369 72.640,379.178 72.200 C 377.070 67.333,374.927 62.683,373.243 59.319 C 372.119 57.074,371.200 55.064,371.200 54.852 C 371.200 54.640,371.030 54.407,370.822 54.333 C 370.462 54.207,369.146 51.952,365.488 45.200 C 363.460 41.457,360.406 36.644,359.946 36.467 C 359.756 36.393,359.600 36.155,359.600 35.937 C 359.600 35.363,355.720 29.840,350.839 23.464 C 348.507 20.419,346.338 17.539,346.017 17.064 C 345.261 15.943,343.169 13.567,338.478 8.500 L 334.682 4.400 168.565 4.400 C 77.200 4.400,2.392 4.535,2.324 4.700 M180.209 197.461 C 132.034 245.721,92.491 285.160,92.334 285.103 C 91.951 284.964,67.192 260.438,31.994 225.331 C 16.040 209.419,2.810 196.400,2.594 196.400 C 2.337 196.400,2.232 219.357,2.293 262.500 L 2.386 328.600 6.293 332.400 C 13.241 339.158,30.596 353.200,32.001 353.200 C 32.221 353.200,32.400 353.380,32.400 353.600 C 32.400 353.820,32.626 354.000,32.902 354.000 C 33.178 354.000,34.483 354.883,35.802 355.961 C 38.221 357.940,39.899 358.677,39.690 357.670 C 39.624 357.351,39.769 357.257,40.056 357.435 C 40.360 357.623,65.988 332.225,111.166 286.964 C 188.432 209.555,264.598 133.873,265.435 133.674 C 265.727 133.605,291.211 158.850,322.066 189.774 C 352.922 220.698,378.402 246.000,378.689 246.000 C 378.975 246.000,379.662 245.055,380.214 243.900 C 381.384 241.453,382.025 240.334,382.765 239.443 C 383.058 239.089,383.179 238.800,383.033 238.800 C 382.887 238.800,383.225 238.307,383.784 237.704 C 384.343 237.101,384.800 236.381,384.800 236.104 C 384.800 235.827,384.980 235.600,385.200 235.600 C 385.420 235.600,385.563 235.465,385.518 235.300 C 385.414 234.923,386.795 232.276,387.250 231.980 C 387.436 231.859,387.699 231.205,387.835 230.526 C 388.074 229.329,386.302 227.513,328.225 169.446 C 295.304 136.531,268.241 109.626,268.084 109.658 C 267.928 109.690,228.384 149.202,180.209 197.461 M266.091 218.856 C 263.401 221.503,261.200 223.863,261.200 224.100 C 261.200 224.823,345.353 308.784,346.086 308.792 C 346.463 308.797,346.957 308.454,347.183 308.031 C 347.410 307.608,347.827 307.023,348.110 306.731 C 349.272 305.533,352.400 301.230,352.400 300.830 C 352.400 300.594,352.539 300.400,352.709 300.400 C 352.879 300.400,353.358 299.768,353.774 298.995 L 354.531 297.591 353.565 296.537 C 353.034 295.957,347.020 289.941,340.200 283.167 C 316.996 260.121,303.023 246.159,287.761 230.768 C 279.379 222.316,272.175 215.094,271.752 214.721 C 271.013 214.068,270.795 214.227,266.091 218.856 M195.785 289.051 C 99.342 384.895,98.855 385.387,99.941 385.968 C 100.828 386.443,109.151 388.746,110.732 388.954 C 111.319 389.032,112.070 389.203,112.400 389.336 C 113.427 389.749,124.735 391.898,130.400 392.757 C 153.658 396.282,187.664 395.774,207.600 391.604 C 208.590 391.397,212.100 390.663,215.400 389.972 C 220.748 388.853,229.183 386.746,230.800 386.125 C 231.130 385.998,231.931 385.826,232.580 385.742 C 233.229 385.658,233.859 385.457,233.980 385.295 C 234.101 385.133,234.380 384.955,234.600 384.900 C 239.928 383.574,260.673 375.509,260.508 374.828 C 260.458 374.620,260.770 374.517,261.202 374.600 C 262.217 374.796,275.860 367.841,283.314 363.328 C 285.247 362.157,287.002 361.200,287.214 361.200 C 287.426 361.200,287.600 361.020,287.600 360.800 C 287.600 360.580,287.825 360.445,288.100 360.500 C 288.375 360.555,288.551 360.362,288.490 360.070 C 288.430 359.779,288.543 359.641,288.743 359.765 C 288.943 359.888,289.553 359.637,290.099 359.208 C 290.646 358.778,291.178 358.511,291.282 358.616 C 291.386 358.720,291.798 358.444,292.198 358.002 C 292.597 357.561,293.166 357.200,293.462 357.200 C 293.758 357.200,294.000 357.062,294.000 356.894 C 294.000 356.725,295.428 355.634,297.173 354.468 C 302.402 350.973,303.308 352.676,288.600 338.346 C 276.484 326.541,256.791 306.831,234.170 283.870 C 225.354 274.922,217.967 267.600,217.755 267.600 C 217.543 267.600,207.657 277.253,195.785 289.051" fill="#05abf2" fill-rule="evenodd"></path>
	</g>
</svg>