<?xml version="1.0" encoding="utf-8"?>
<!-- Generator: Adobe Illustrator 21.0.2, SVG Export Plug-In . SVG Version: 6.00 Build 0)  -->
<svg version="1.1" id="Layer_1" xmlns="http://www.w3.org/2000/svg" xmlns:xlink="http://www.w3.org/1999/xlink" x="0px" y="0px"
	 viewBox="0 0 80 30" style="enable-background:new 0 0 80 30;" xml:space="preserve">
<style type="text/css">
	.st0{fill:#227FC3;}
</style>
<g>
	<g>
		<path class="st0" d="M2.3,25.3c-0.6,0-1.2,0.2-1.6,0.7C0.2,26.5,0,27,0,27.7c0,0.6,0.2,1.2,0.7,1.6c0.4,0.5,1,0.7,1.6,0.7
			c0.7,0,1.2-0.2,1.7-0.7c0.5-0.5,0.7-1,0.7-1.6c0-0.6-0.2-1.2-0.7-1.6C3.5,25.6,2.9,25.3,2.3,25.3z M30.2,20.8c0,2,0.1,3.5,0.2,4.3
			h-0.1c-0.2-0.4-0.6-1.1-1.2-2L14.2,0H9.7v29.5h3.5V8.2c0-2.1-0.1-3.4-0.2-4.1h0.1c0.3,0.7,0.6,1.3,0.9,1.9l15.4,23.5h4.2h0V0h-3.5
			V20.8z M43.8,16.1h10.8V13H43.8V3.1h11.6V0H40.3v29.5h15.8v-3.1H43.8V16.1z M59.4,0v3.1H68v26.4h3.5V3.1H80V0H59.4z"/>
	</g>
</g>
</svg>
